<?xml version="1.0" encoding="UTF-8" standalone="no"?>
<!-- Created with Inkscape (http://www.inkscape.org/) -->

<svg
   width="210mm"
   height="297mm"
   viewBox="0 0 210 297"
   version="1.1"
   id="svg1"
   xml:space="preserve"
   inkscape:version="1.3 (0e150ed6c4, 2023-07-21)"
   sodipodi:docname="dibujo.svg"
   xmlns:inkscape="http://www.inkscape.org/namespaces/inkscape"
   xmlns:sodipodi="http://sodipodi.sourceforge.net/DTD/sodipodi-0.dtd"
   xmlns:xlink="http://www.w3.org/1999/xlink"
   xmlns="http://www.w3.org/2000/svg"
   xmlns:svg="http://www.w3.org/2000/svg"><sodipodi:namedview
     id="namedview1"
     pagecolor="#ffffff"
     bordercolor="#666666"
     borderopacity="1.0"
     inkscape:showpageshadow="2"
     inkscape:pageopacity="0.0"
     inkscape:pagecheckerboard="0"
     inkscape:deskcolor="#d1d1d1"
     inkscape:document-units="mm"
     inkscape:zoom="0.39685475"
     inkscape:cx="417.02915"
     inkscape:cy="624.91377"
     inkscape:window-width="1440"
     inkscape:window-height="876"
     inkscape:window-x="0"
     inkscape:window-y="0"
     inkscape:window-maximized="1"
     inkscape:current-layer="layer1" /><defs
     id="defs1"><linearGradient
       id="linearGradient1"
       inkscape:collect="always"><stop
         style="stop-color:#ff6600;stop-opacity:1;"
         offset="0"
         id="stop1" /><stop
         style="stop-color:#ff6600;stop-opacity:0;"
         offset="1"
         id="stop2" /></linearGradient><linearGradient
       inkscape:collect="always"
       xlink:href="#linearGradient1"
       id="linearGradient2"
       x1="74.670479"
       y1="90.004593"
       x2="65.336662"
       y2="267.34698"
       gradientUnits="userSpaceOnUse" /></defs><g
     inkscape:label="Capa 1"
     inkscape:groupmode="layer"
     id="layer1"><path
       style="fill:url(#linearGradient2);fill-opacity:1"
       d="m 60.4003,148.53474 v -23.67686 l -9.44531,-0.0695 -9.44531,-0.0695 -4.44532,-6.29182 c -2.44492,-3.46051 -4.44531,-6.37754 -4.44531,-6.48229 0,-0.10476 12.05508,-0.1619 26.78906,-0.12698 l 26.78907,0.0635 0.0708,6.48494 0.0708,6.48495 h -6.48691 -6.48692 l -0.0106,16.86719 -0.0107,16.86719 -3.58534,3.83646 c -1.97195,2.11005 -4.78303,5.17591 -6.24687,6.81302 -1.46383,1.63711 -2.76266,2.97656 -2.88629,2.97656 -0.12362,0 -0.22477,-10.65459 -0.22477,-23.67687 z m 17.10857,-9.9348 c -0.0964,-2.66076 -0.17467,-5.97952 -0.17397,-7.37502 l 10e-4,-2.53727 3.63676,-0.0175 c 2.00021,-0.01 4.35113,-0.17012 5.22426,-0.35659 4.09253,-0.87402 6.8338,-3.11484 7.83239,-6.40247 0.77377,-2.54747 0.64854,-6.14976 -0.27936,-8.03587 -0.85629,-1.74055 -2.57194,-3.37064 -4.59111,-4.36214 -3.21844,-1.5804 -3.20878,-1.57988 -25.98078,-1.40503 -11.38339,0.0874 -20.88849,0.0855 -21.12246,-0.004 -0.33923,-0.13018 0.41913,-1.43814 3.74462,-6.45839 2.2935,-3.462333 4.44801,-6.750033 4.78781,-7.306003 l 0.61782,-1.01085 17.09866,0.10507 c 14.75236,0.0907 17.41667,0.16711 19.4162,0.55719 6.37754,1.24417 11.14256,3.61695 14.88655,7.412893 3.51454,3.5633 5.51064,7.64848 6.35092,12.99765 1.72572,10.98588 -3.73545,21.42368 -13.76543,26.3095 -4.0795,1.98721 -6.1772,2.42801 -12.32633,2.59022 l -5.18258,0.13671 z"
       id="path1"
       sodipodi:nodetypes="ccccssscccccccsssccccccssssscsscsssssscc"
       inkscape:export-filename="path1.png"
       inkscape:export-xdpi="96"
       inkscape:export-ydpi="96" /><text
       xml:space="preserve"
       style="font-style:normal;font-weight:normal;font-size:19.7556px;line-height:1.25;font-family:sans-serif;fill:#ff6600;fill-opacity:0.94509804;stroke:none;stroke-width:0.264583"
       x="49.33585"
       y="68.670174"
       id="text2"><tspan
         sodipodi:role="line"
         id="tspan2"
         style="font-style:normal;font-variant:normal;font-weight:normal;font-stretch:normal;font-size:19.7556px;font-family:AGRevueCyr;-inkscape-font-specification:AGRevueCyr;stroke-width:0.264583;fill:#ff6600;fill-opacity:0.94509804"
         x="49.33585"
         y="68.670174">Pyme Tools</tspan></text></g></svg>
